<?xml version="1.0" encoding="utf-8"?>
<!-- Svg Vector Icons : http://www.onlinewebfonts.com/icon -->
<!DOCTYPE svg PUBLIC "-//W3C//DTD SVG 1.1//EN" "http://www.w3.org/Graphics/SVG/1.1/DTD/svg11.dtd">
<svg version="1.1" xmlns="http://www.w3.org/2000/svg" xmlns:xlink="http://www.w3.org/1999/xlink" x="0px" y="0px" viewBox="0 0 256 256" enable-background="new 0 0 256 256" xml:space="preserve">
<metadata> Svg Vector Icons : http://www.onlinewebfonts.com/icon </metadata>
<g><g><path fill="#000000" d="M128,10C62.8,10,10,62.8,10,128c0,65.2,52.8,118,118,118c65.2,0,118-52.8,118-118C246,62.8,193.2,10,128,10L128,10z M199.3,110.7l-70.8,70.8c-5.7,5.7-15.1,5.7-20.9,0l-36.1-36.1c-5.7-5.7-5.7-15.1,0-20.9l2.6-2.6c5.7-5.7,15.1-5.7,20.9,0l12.7,12.7c5.2,5.2,10.2,10.2,10.2,10.2s5.1-4.7,10.7-10.2l47.3-47.3c5.7-5.7,15.1-5.7,20.9,0l2.6,2.6C205,95.6,205,105,199.3,110.7L199.3,110.7z"/></g></g>
</svg>